<svg xmlns="http://www.w3.org/2000/svg" xmlns:xlink="http://www.w3.org/1999/xlink" width="500" zoomAndPan="magnify" viewBox="0 0 375 374.999991" height="500" preserveAspectRatio="xMidYMid meet" version="1.0"><defs><g/></defs><g fill="#000000" fill-opacity="1"><g transform="translate(190.294146, 254.633222)"><g><path d="M 64.554688 -65.523438 L 21.148438 -65.523438 L 21.148438 -90.542969 L 52.53125 -90.542969 L 52.53125 -110.589844 L 1.519531 -110.589844 C 0.691406 -110.589844 0 -109.898438 0 -109.34375 L 0 -1.242188 C 0 -0.691406 0.691406 0 1.519531 0 L 21.148438 0 L 21.148438 -45.480469 L 64.554688 -45.480469 C 65.386719 -45.480469 66.078125 -46.171875 66.078125 -46.722656 L 66.078125 -64.28125 C 66.078125 -64.96875 65.386719 -65.523438 64.554688 -65.523438 Z M 64.554688 -65.523438 "/></g></g></g><g fill="#000000" fill-opacity="1"><g transform="translate(274.884504, 254.633222)"><g><path d="M 53.910156 -77.6875 C 53.910156 -65.523438 37.601562 -65.523438 37.601562 -65.523438 L 21.011719 -65.523438 L 21.011719 -90.820312 L 37.601562 -90.820312 C 37.601562 -90.820312 53.910156 -90.957031 53.910156 -77.6875 Z M 75.0625 -78.933594 C 75.0625 -111.417969 37.601562 -110.589844 37.601562 -110.589844 L 1.519531 -110.589844 C 0.691406 -110.589844 0 -109.898438 0 -109.34375 L 0 -44.925781 L 37.601562 -44.925781 C 37.601562 -44.925781 55.433594 -45.753906 55.433594 -32.761719 C 55.433594 -22.117188 44.511719 -20.183594 37.601562 -20.183594 L 21.148438 -20.183594 L 21.148438 0 L 37.601562 0 C 45.066406 0 76.582031 -1.382812 76.582031 -32.207031 C 76.582031 -32.207031 77.273438 -49.351562 59.71875 -55.292969 C 68.148438 -58.75 75.0625 -66.078125 75.0625 -78.933594 Z M 75.0625 -78.933594 "/></g></g></g><g fill="#000000" fill-opacity="1"><g transform="translate(11.850014, 178.040565)"><g><path d="M 111.125 -59.75 L 42.78125 8.59375 L 72.1875 38 L 55.09375 55.09375 L 6.203125 6.203125 L 91.640625 -79.234375 Z M 111.125 -59.75 "/></g></g></g><g fill="#000000" fill-opacity="1"><g transform="translate(177.978329, 196.952849)"><g><path d="M -111.125 59.75 L -42.78125 -8.59375 L -72.1875 -38 L -55.09375 -55.09375 L -6.203125 -6.203125 L -91.640625 79.234375 Z M -111.125 59.75 "/></g></g></g></svg>